<?xml version="1.0" encoding="utf-8"?>
<!-- Generator: Adobe Illustrator 18.0.0, SVG Export Plug-In . SVG Version: 6.00 Build 0)  -->
<!DOCTYPE svg PUBLIC "-//W3C//DTD SVG 1.1//EN" "http://www.w3.org/Graphics/SVG/1.1/DTD/svg11.dtd">
<svg version="1.1" id="Слой_2" xmlns="http://www.w3.org/2000/svg" xmlns:xlink="http://www.w3.org/1999/xlink" x="0px" y="0px"
	 viewBox="0 0 1200 850" enable-background="new 0 0 1200 850" xml:space="preserve">
<path fill="#000000"    d="M482.1,448.5c-10.1,14.8-15.4,20.1-26.9,28.5
	c-11.4,8.4-19.5,12.8-25.2,26.2s-13.8,24.2-10.4,38.9c3.4,14.8,15.8,35.3,36.3,51c20.5,15.8,25.9,26.2,31.6,35.6s9.7,12.4,10.1,16.5
	c0.3,4,6.7,24.8,5,31.2c-1.7,6.4-10.7,9.1-10.7,9.1s-0.7,10.7-13.1,8.7c-12.4-2-14.6-3.4-17.9-5.7c-3.3-2.4-3.9-6.4-3.9-6.4
	s-6-3-12.4-9.4c-6.4-6.4-13.1-15.1-13.1-15.1s-2.4,0-6-4.4c-3.7-4.4-0.9-10.1-6.5-20.5c-5.6-10.4-18-30.6-25.1-40
	c-7.1-9.4-25.9-31.2-37.3-43.7s-18.5-19.8-18.5-19.8s-10.1,10.4-8.7,21.8c1.3,11.4,7.4,37.9,21.5,56.4s19.1,34.2,21.8,38.9
	s4,31.2-3.4,43.3c-7.4,12.1-10.1,14.4-12.1,14.8s-2.7,7.4-17.8,2c-15.1-5.4-18.8-12.8-18.8-12.8s-5-0.7-14.8-10.7
	s-10.4-15.8-8.7-18.1c1.7-2.4,6-9.4,6-9.4s-6.8-7.1-6.8-18.1c0-11.1,4.7-17.8,0-27.9s-20.4-53.1-28.5-67.2
	c-8.1-14.1-11.1-16.1-13.1-21.8s-3-7.1,0-13.8c3-6.7,1-5.4,10.7-10.1c9.7-4.7,21.2-12.4,37.6-30.6c16.5-18.1,32.2-43,34.6-52.4
	c2.4-9.4,2.4-19.1-0.7-25.9c-3-6.7-6.7-5.7-11.1-8.1s-10.1,1-22.5-6.7c-12.4-7.7-19.5-16.8-24.8-21.5c-5.4-4.7-24.5-14.1-27.5-20.5
	c-3-6.4-17.5-15.4-20.8-28.5s-5-19.1-5-19.1s-23.8,35.3-43,70.5s-52.4,81.6-67.8,103.1c-15.4,21.5-45,51-57.8,59.1
	S44,524.7,27.8,527c-16.1,2.4-19.1,1-20.5,1.7s5.4-4.4,5.4-4.4l-8.1,1.3c0,0,8.4-7.1,10.1-8.7c1.7-1.7-5.7,0.7-7.4,2
	c-1.7,1.3,0.7-3,14.4-17.8c13.8-14.8,26.9-29.9,35.3-42.3s38.6-57.8,46.7-78.9c8.1-21.2,34.2-68.5,45-86
	c10.7-17.5,13.4-28.9,49-55.4s44-30.6,51-36.6s46.7-47.3,99.1-63.8s100.1-15.8,129.9-16.1c29.9-0.3,140.7,2.7,185.3,2.4
	c44.7-0.3,98,9.1,116.5,7.1s59.8-4,74.9-0.7c15.1,3.4,34.9,17.1,45.3,17.5s25.9,2.7,30.9,3.7s23.5-2.7,32.6,0.7
	c9.1,3.4,33.2,2.4,51,5.7c17.8,3.4,19.8,6,24.8,4c5-2,35.9-8.1,46.7-3.4s40,22.2,58.8,49.7s27.9,45.3,26.5,51.4
	c-1.3,6-9.1,17.8-11.8,22.8c-2.7,5-3.4,6-1,11.1c2.4,5,30.9,52.4,34.2,59.8c3.4,7.4,3.7,15.1-7.7,19.8c-11.4,4.7-16.5,6.7-16.5,6.7
	s-4,6.7-10.4,8.4c-6.4,1.7-18.8,3.4-36.9-2.4s-35.6-13.4-46-16.1c-10.4-2.7-23.2-6-32.2-9.7c-9.1-3.7-10.7-5.4-15.1-11.1
	c-4.4-5.7-6.7-8.7-10.1-10.4c-3.4-1.7-13.1-4-16.8-5.7s1,1-9.4,8.4s-13.8,0.7-23.8,12.1s-15.8,16.8-24.8,29.5S925,410.5,915,418.6
	c-10.1,8.1-14.8,12.8-14.8,12.8s-0.3,7.4,0.7,11.8c1,4.4,6,16.5,15.4,30.6c9.4,14.1,25.9,28.5,28.2,30.9c2.4,2.4,8.4,17.8,24.2,30.2
	c15.8,12.4,25.2,19.5,28.5,23.8c3.4,4.4,11.1,29.9,17.5,40.6c6.4,10.7,8.7,9.1,12.1,13.4c3.4,4.4-0.3,9.4-0.3,9.4
	s18.8,17.1,27.9,37.3c9.1,20.1,16.5,39.6,14.1,49.4s-3.7,19.5-4,20.5c-0.3,1-4.7,0-4.7,0l-2.7,2.7c0,0-4.4,0-5.4,0s-4.7,7.7-15.1,0
	s-18.1-11.8-18.1-12.8s-5-9.7-5-9.7s-6.7,1-13.4-7.4c-6.7-8.4-6-20.5-6-20.5s-11.4-2.4-12.1-13.4s-1.7-16.1-3.4-28.2
	s-3.4-21.8-10.4-28.5c-7.1-6.7-8.7-7.1-8.7-7.1s-4,1.7-9.7-4.7s-3.7-13.1-3.7-13.1s-6.7-11.8-14.8-17.5
	c-8.1-5.7-13.1-12.4-13.1-12.4s-1.7,14.8-14.8,20.1s-17.8,7.4-35.3,7.7s-34.9,3-45.3,7.1c-10.4,4-13.1,7.7-33.6,12.1
	s-42,10.4-48,8.1c-6-2.4-10.9-10.7-7-14.8c3.9-4,5.6-7.4,5.6-7.4s-7.4-10.7,2-17.8c9.4-7.1,18.8-8.4,18.8-8.4s4-9.4,9.1-10.4
	s7.4-0.3,7.4-0.3s4.7-11.1,17.1-9.4c12.4,1.7,21.5,5.7,21.5,5.7s26.2-2.7,31.9-4c5.7-1.3,1.3-6.4,6.4-9.7c5-3.4,6-7.1,6-7.1
	s-4.4-17.8-11.8-26.9c-7.4-9.1-15.4-24.2-22.2-31.2s-20.8-10.4-28.5-14.8c-7.7-4.4-10.4-5.7-12.1-14.4c-1.7-8.7,0-25.9,0.7-29.2
	c0.7-3.4-1.3-7.1-1.3-7.1l-5.4-5c0,0-12.8,1.3-32.2-0.3s-31.9-7.1-37.3-6.7c-5.4,0.3-51,0.3-68.2-5c-17.1-5.4-67.5-17.1-80.9-21.8
	s-42.3-10.7-42.3-10.7s-3.4,14.1-4.7,18.8s3.7,24.8-0.3,30.6c-4,5.7-9.1,4.4-13.4,14.4C495.6,428.7,487,441.3,482.1,448.5z"/>
</svg>
